<svg width="33" height="33" viewBox="0 0 33 33" fill="none" xmlns="http://www.w3.org/2000/svg">
<path fill-rule="evenodd" clip-rule="evenodd" d="M2.4156 30.5827C4.8345 33 8.7219 33 16.5 33C24.2781 33 28.1671 33 30.5827 30.5827C33 28.1688 33 24.2781 33 16.5C33 8.7219 33 4.83285 30.5827 2.4156C28.1688 0 24.2781 0 16.5 0C8.7219 0 4.83285 0 2.4156 2.4156C0 4.8345 0 8.7219 0 16.5C0 24.2781 0 28.1671 2.4156 30.5827ZM10.6755 14.8005C10.5539 14.9138 10.4564 15.0504 10.3888 15.2022C10.3211 15.354 10.2848 15.5179 10.2818 15.684C10.2789 15.8502 10.3095 16.0152 10.3717 16.1693C10.4339 16.3234 10.5266 16.4634 10.6441 16.5809C10.7616 16.6984 10.9016 16.7911 11.0557 16.8533C11.2098 16.9155 11.3748 16.9461 11.541 16.9432C11.7071 16.9402 11.871 16.9039 12.0228 16.8362C12.1746 16.7686 12.3112 16.6711 12.4245 16.5495L16.5 12.474L20.5755 16.5495C20.6888 16.6711 20.8254 16.7686 20.9772 16.8362C21.129 16.9039 21.2929 16.9402 21.459 16.9432C21.6252 16.9461 21.7902 16.9155 21.9443 16.8533C22.0984 16.7911 22.2384 16.6984 22.3559 16.5809C22.4734 16.4634 22.5661 16.3234 22.6283 16.1693C22.6905 16.0152 22.7211 15.8502 22.7182 15.684C22.7152 15.5179 22.6789 15.354 22.6112 15.2022C22.5436 15.0504 22.4461 14.9138 22.3245 14.8005L17.3745 9.8505C17.1425 9.61876 16.8279 9.48859 16.5 9.48859C16.1721 9.48859 15.8575 9.61876 15.6255 9.8505L10.6755 14.8005ZM10.6755 23.1495C10.4438 22.9175 10.3136 22.6029 10.3136 22.275C10.3136 21.9471 10.4438 21.6325 10.6755 21.4005L15.6255 16.4505C15.8575 16.2188 16.1721 16.0886 16.5 16.0886C16.8279 16.0886 17.1425 16.2188 17.3745 16.4505L22.3245 21.4005C22.4461 21.5138 22.5436 21.6504 22.6112 21.8022C22.6789 21.954 22.7152 22.1179 22.7182 22.284C22.7211 22.4502 22.6905 22.6152 22.6283 22.7693C22.5661 22.9234 22.4734 23.0634 22.3559 23.1809C22.2384 23.2984 22.0984 23.3911 21.9443 23.4533C21.7902 23.5155 21.6252 23.5461 21.459 23.5432C21.2929 23.5402 21.129 23.5039 20.9772 23.4362C20.8254 23.3686 20.6888 23.2711 20.5755 23.1495L16.5 19.074L12.4245 23.1495C12.1925 23.3812 11.8779 23.5114 11.55 23.5114C11.2221 23.5114 10.9075 23.3812 10.6755 23.1495Z" fill="#789C87"/>
</svg>
