<svg width="40" height="40" viewBox="0 0 40 40" fill="none" xmlns="http://www.w3.org/2000/svg">
<g clip-path="url(#clip0_423_400)">
<rect width="40" height="40" rx="6" fill="white"/>
<path fill-rule="evenodd" clip-rule="evenodd" d="M-2.76269 42.7599C1.14665 46.6666 7.42931 46.6666 20 46.6666C32.5706 46.6666 38.856 46.6666 42.76 42.7599C46.6666 38.8586 46.6666 32.5706 46.6666 19.9999C46.6666 7.42925 46.6666 1.14392 42.76 -2.76275C38.8586 -6.66675 32.5706 -6.66675 20 -6.66675C7.42931 -6.66675 1.14398 -6.66675 -2.76269 -2.76275C-6.66669 1.14658 -6.66669 7.42925 -6.66669 19.9999C-6.66669 32.5706 -6.66669 38.8559 -2.76269 42.7599ZM10.5866 17.2533C10.3901 17.4364 10.2325 17.6572 10.1232 17.9025C10.0139 18.1478 9.95514 18.4127 9.9504 18.6812C9.94566 18.9497 9.99506 19.2165 10.0957 19.4655C10.1962 19.7145 10.346 19.9408 10.5359 20.1307C10.7258 20.3206 10.952 20.4703 11.2011 20.5709C11.4501 20.6715 11.7168 20.7209 11.9854 20.7162C12.2539 20.7114 12.5187 20.6526 12.7641 20.5433C13.0094 20.434 13.2302 20.2764 13.4133 20.0799L20 13.4933L26.5866 20.0799C26.7697 20.2764 26.9905 20.434 27.2359 20.5433C27.4812 20.6526 27.746 20.7114 28.0146 20.7162C28.2831 20.7209 28.5499 20.6715 28.7989 20.5709C29.0479 20.4703 29.2742 20.3206 29.4641 20.1307C29.654 19.9408 29.8037 19.7145 29.9043 19.4655C30.0049 19.2165 30.0543 18.9497 30.0496 18.6812C30.0448 18.4127 29.986 18.1478 29.8767 17.9025C29.7674 17.6572 29.6098 17.4364 29.4133 17.2533L21.4133 9.25325C21.0383 8.87872 20.53 8.66834 20 8.66834C19.47 8.66834 18.9616 8.87872 18.5866 9.25325L10.5866 17.2533ZM10.5866 30.7466C10.2121 30.3716 10.0017 29.8633 10.0017 29.3332C10.0017 28.8032 10.2121 28.2949 10.5866 27.9199L18.5866 19.9199C18.9616 19.5454 19.47 19.335 20 19.335C20.53 19.335 21.0383 19.5454 21.4133 19.9199L29.4133 27.9199C29.6098 28.103 29.7674 28.3238 29.8767 28.5691C29.986 28.8145 30.0448 29.0793 30.0496 29.3479C30.0543 29.6164 30.0049 29.8831 29.9043 30.1322C29.8037 30.3812 29.654 30.6074 29.4641 30.7974C29.2742 30.9873 29.0479 31.137 28.7989 31.2376C28.5499 31.3382 28.2831 31.3876 28.0146 31.3828C27.746 31.3781 27.4812 31.3193 27.2359 31.21C26.9905 31.1007 26.7697 30.9431 26.5866 30.7466L20 24.1599L13.4133 30.7466C13.0383 31.1211 12.53 31.3315 12 31.3315C11.47 31.3315 10.9616 31.1211 10.5866 30.7466Z" fill="#789C87"/>
</g>
<defs>
<clipPath id="clip0_423_400">
<rect width="40" height="40" rx="6" fill="white"/>
</clipPath>
</defs>
</svg>
