<svg width="39" height="30" viewBox="0 0 39 30" fill="none" xmlns="http://www.w3.org/2000/svg">
<path d="M0.476181 2.86262C0.156125 2.54797 0 2.14889 0 1.66539C0 1.18189 0.156125 0.782808 0.476181 0.46815C0.796237 0.153492 1.20216 0 1.69396 0H37.306C37.7978 0 38.2038 0.153492 38.5238 0.46815C38.8439 0.782808 39 1.18189 39 1.66539C39 2.14889 38.8439 2.54797 38.5238 2.86262C38.2038 3.17728 37.7978 3.33077 37.306 3.33077H1.69396C1.20216 3.33077 0.796237 3.17728 0.476181 2.86262ZM38.5238 13.8066C38.8439 14.1213 39 14.5203 39 15.0038C39 15.4873 38.8439 15.8864 38.5238 16.2011C38.2038 16.5157 37.7978 16.6692 37.306 16.6692H1.69396C1.20216 16.6692 0.796237 16.5157 0.476181 16.2011C0.156125 15.8864 0 15.4873 0 15.0038C0 14.5203 0.156125 14.1213 0.476181 13.8066C0.796237 13.4919 1.20216 13.3384 1.69396 13.3384H37.306C37.7978 13.3384 38.2038 13.4919 38.5238 13.8066ZM38.5238 27.1374C38.8439 27.452 39 27.8511 39 28.3346C39 28.8181 38.8439 29.2172 38.5238 29.5318C38.2038 29.8465 37.7978 30 37.306 30H1.69396C1.20216 30 0.796237 29.8465 0.476181 29.5318C0.156125 29.2172 0 28.8181 0 28.3346C0 27.8511 0.156125 27.452 0.476181 27.1374C0.796237 26.8227 1.20216 26.6692 1.69396 26.6692H37.306C37.7978 26.6692 38.2038 26.8304 38.5238 27.1374Z" fill="#815B2E"/>
</svg>
