<svg width="60" height="60" viewBox="0 0 60 60" fill="none" xmlns="http://www.w3.org/2000/svg">
<path d="M30 16.1538C27.2615 16.1538 24.5845 16.9659 22.3075 18.4873C20.0305 20.0088 18.2558 22.1713 17.2078 24.7013C16.1598 27.2314 15.8856 30.0154 16.4199 32.7012C16.9542 35.3871 18.2729 37.8543 20.2093 39.7907C22.1457 41.7271 24.6129 43.0458 27.2987 43.5801C29.9846 44.1144 32.7686 43.8402 35.2987 42.7922C37.8287 41.7442 39.9912 39.9695 41.5127 37.6925C43.0341 35.4155 43.8462 32.7385 43.8462 30C43.8423 26.3289 42.3823 22.8093 39.7865 20.2135C37.1907 17.6177 33.6711 16.1577 30 16.1538ZM30 39.2308C28.1743 39.2308 26.3897 38.6894 24.8717 37.6751C23.3537 36.6608 22.1705 35.2192 21.4719 33.5325C20.7732 31.8458 20.5904 29.9898 20.9466 28.1992C21.3028 26.4086 22.1819 24.7638 23.4729 23.4729C24.7638 22.1819 26.4086 21.3028 28.1992 20.9466C29.9898 20.5904 31.8458 20.7732 33.5325 21.4719C35.2192 22.1705 36.6608 23.3537 37.6751 24.8717C38.6894 26.3897 39.2308 28.1743 39.2308 30C39.2308 32.4482 38.2582 34.796 36.5271 36.5271C34.796 38.2582 32.4482 39.2308 30 39.2308ZM43.8462 0H16.1538C11.871 0.00458142 7.76485 1.70797 4.73641 4.73641C1.70797 7.76485 0.00458142 11.871 0 16.1538V43.8462C0.00458142 48.129 1.70797 52.2351 4.73641 55.2636C7.76485 58.292 11.871 59.9954 16.1538 60H43.8462C48.129 59.9954 52.2351 58.292 55.2636 55.2636C58.292 52.2351 59.9954 48.129 60 43.8462V16.1538C59.9954 11.871 58.292 7.76485 55.2636 4.73641C52.2351 1.70797 48.129 0.00458142 43.8462 0ZM55.3846 43.8462C55.3846 46.9063 54.169 49.8412 52.0051 52.0051C49.8412 54.169 46.9063 55.3846 43.8462 55.3846H16.1538C13.0937 55.3846 10.1588 54.169 7.99492 52.0051C5.83104 49.8412 4.61538 46.9063 4.61538 43.8462V16.1538C4.61538 13.0937 5.83104 10.1588 7.99492 7.99492C10.1588 5.83104 13.0937 4.61538 16.1538 4.61538H43.8462C46.9063 4.61538 49.8412 5.83104 52.0051 7.99492C54.169 10.1588 55.3846 13.0937 55.3846 16.1538V43.8462ZM48.4615 15C48.4615 15.6846 48.2585 16.3539 47.8782 16.9231C47.4978 17.4924 46.9572 17.936 46.3247 18.198C45.6922 18.46 44.9962 18.5286 44.3247 18.395C43.6532 18.2615 43.0364 17.9318 42.5523 17.4477C42.0682 16.9636 41.7385 16.3468 41.605 15.6753C41.4714 15.0038 41.54 14.3078 41.802 13.6753C42.064 13.0428 42.5076 12.5022 43.0769 12.1218C43.6461 11.7415 44.3154 11.5385 45 11.5385C45.9181 11.5385 46.7985 11.9032 47.4477 12.5523C48.0968 13.2015 48.4615 14.0819 48.4615 15Z" fill="white"/>
</svg>
