<svg width="27" height="26" viewBox="0 0 27 26" fill="none" xmlns="http://www.w3.org/2000/svg">
<path fill-rule="evenodd" clip-rule="evenodd" d="M3.06403 0.829065C3.34838 0.545146 3.68982 0.324899 4.06572 0.182919C4.44163 0.0409389 4.84342 -0.0195318 5.24446 0.00551423C5.6455 0.0305602 6.03664 0.140551 6.39196 0.328197C6.74728 0.515844 7.05867 0.776861 7.30548 1.09395L10.2225 4.84137C10.7571 5.52878 10.9456 6.4242 10.7344 7.26923L9.84547 10.8281C9.79951 11.0125 9.80199 11.2056 9.85268 11.3887C9.90336 11.5717 10.0005 11.7386 10.1347 11.8731L14.1275 15.8659C14.2622 16.0004 14.4293 16.0977 14.6127 16.1484C14.7961 16.1991 14.9895 16.2014 15.1741 16.1551L18.7314 15.2662C19.1484 15.162 19.5837 15.1539 20.0043 15.2425C20.4249 15.3312 20.8198 15.5144 21.1592 15.7781L24.9067 18.6935C26.2539 19.7417 26.3774 21.7324 25.1716 22.9366L23.4912 24.6169C22.2887 25.8195 20.4913 26.3476 18.8159 25.7577C14.5276 24.2489 10.6341 21.7939 7.42411 18.5749C4.2053 15.3654 1.75033 11.4724 0.241276 7.18473C-0.347001 5.5109 0.181149 3.71195 1.3837 2.50939L3.06403 0.829065Z" fill="white"/>
</svg>
