<svg width="24" height="24" viewBox="0 0 24 24" fill="none" xmlns="http://www.w3.org/2000/svg">
<path d="M14.136 8.952C14.0761 8.952 14.0168 8.9638 13.9615 8.98671C13.9062 9.00963 13.8559 9.04322 13.8136 9.08556C13.7712 9.1279 13.7376 9.17817 13.7147 9.2335C13.6918 9.28882 13.68 9.34812 13.68 9.408V11.412L12 9.18C11.9581 9.11208 11.9 9.05566 11.8309 9.01586C11.7617 8.97605 11.6838 8.9541 11.604 8.952C11.5441 8.952 11.4848 8.9638 11.4295 8.98671C11.3742 9.00963 11.3239 9.04322 11.2816 9.08556C11.2392 9.1279 11.2056 9.17817 11.1827 9.2335C11.1598 9.28882 11.148 9.34812 11.148 9.408V12.816C11.148 12.8759 11.1598 12.9352 11.1827 12.9905C11.2056 13.0458 11.2392 13.0961 11.2816 13.1384C11.3239 13.1808 11.3742 13.2144 11.4295 13.2373C11.4848 13.2602 11.5441 13.272 11.604 13.272C11.6639 13.272 11.7232 13.2602 11.7785 13.2373C11.8338 13.2144 11.8841 13.1808 11.9264 13.1384C11.9688 13.0961 12.0024 13.0458 12.0253 12.9905C12.0482 12.9352 12.06 12.8759 12.06 12.816V10.8L13.728 13.092C13.7705 13.1559 13.8343 13.2027 13.908 13.224C13.9633 13.2364 14.0207 13.2364 14.076 13.224C14.1286 13.2431 14.1847 13.2509 14.2406 13.2468C14.2964 13.2426 14.3508 13.2267 14.4 13.2L14.52 13.116C14.6042 13.0291 14.6515 12.913 14.652 12.792V9.408C14.6526 9.34272 14.6391 9.27807 14.6125 9.21844C14.586 9.1588 14.5469 9.10557 14.498 9.06234C14.4491 9.01911 14.3914 8.98688 14.329 8.96785C14.2665 8.94881 14.2007 8.94341 14.136 8.952ZM8.64 12.324H7.368V9.408C7.368 9.28706 7.31996 9.17108 7.23444 9.08556C7.14892 9.00004 7.03294 8.952 6.912 8.952C6.79106 8.952 6.67508 9.00004 6.58956 9.08556C6.50404 9.17108 6.456 9.28706 6.456 9.408V12.816C6.456 12.9369 6.50404 13.0529 6.58956 13.1384C6.67508 13.224 6.79106 13.272 6.912 13.272H8.64C8.76207 13.272 8.87933 13.2244 8.96676 13.1392C9.05419 13.054 9.10487 12.938 9.108 12.816C9.11126 12.7526 9.10156 12.6891 9.07951 12.6295C9.05745 12.5699 9.0235 12.5155 8.97971 12.4694C8.93592 12.4234 8.88322 12.3868 8.82482 12.3618C8.76642 12.3368 8.70353 12.3239 8.64 12.324ZM9.972 8.952C9.84993 8.95196 9.73268 8.99962 9.64525 9.0848C9.55782 9.16999 9.50713 9.28597 9.504 9.408V12.816C9.50713 12.938 9.55782 13.054 9.64525 13.1392C9.73268 13.2244 9.84993 13.272 9.972 13.272C10.0929 13.272 10.2089 13.224 10.2944 13.1384C10.38 13.0529 10.428 12.9369 10.428 12.816V9.408C10.428 9.28706 10.38 9.17108 10.2944 9.08556C10.2089 9.00004 10.0929 8.952 9.972 8.952ZM19.092 0H4.908C3.60729 0.00316861 2.36076 0.521277 1.44102 1.44102C0.521277 2.36076 0.00316861 3.60729 0 4.908V19.092C0.00316861 20.3927 0.521277 21.6392 1.44102 22.559C2.36076 23.4787 3.60729 23.9968 4.908 24H19.092C20.3927 23.9968 21.6392 23.4787 22.559 22.559C23.4787 21.6392 23.9968 20.3927 24 19.092V4.908C23.9968 3.60729 23.4787 2.36076 22.559 1.44102C21.6392 0.521277 20.3927 0.00316861 19.092 0ZM19.464 14.736C19.4168 14.8075 19.3646 14.8757 19.308 14.94C19.0219 15.2921 18.7002 15.6139 18.348 15.9C15.948 18.144 11.916 20.832 11.376 20.412C10.836 19.992 12.144 18.3 10.74 18.012C10.6404 18.0246 10.5396 18.0246 10.44 18.012C6.312 17.436 3.24 14.544 3.24 11.076C3.24 7.176 7.188 4.02 12.048 4.02C16.908 4.02 20.856 7.176 20.856 11.076C20.8144 12.4173 20.3242 13.706 19.464 14.736ZM17.412 8.964H15.6C15.5401 8.964 15.4808 8.9758 15.4255 8.99871C15.3702 9.02163 15.3199 9.05522 15.2776 9.09756C15.2352 9.1399 15.2016 9.19017 15.1787 9.2455C15.1558 9.30082 15.144 9.36012 15.144 9.42V12.828C15.144 12.9489 15.192 13.0649 15.2776 13.1504C15.3631 13.236 15.4791 13.284 15.6 13.284H17.376C17.4969 13.284 17.6129 13.236 17.6984 13.1504C17.784 13.0649 17.832 12.9489 17.832 12.828C17.832 12.7681 17.8202 12.7088 17.7973 12.6535C17.7744 12.5982 17.7408 12.5479 17.6984 12.5056C17.6561 12.4632 17.6058 12.4296 17.5505 12.4067C17.4952 12.3838 17.4359 12.372 17.376 12.372H16.14V11.652H17.412C17.534 11.6489 17.65 11.5982 17.7352 11.5108C17.8204 11.4233 17.868 11.3061 17.868 11.184C17.868 11.0631 17.82 10.9471 17.7344 10.8616C17.6489 10.776 17.5329 10.728 17.412 10.728H16.14V9.996H17.412C17.4719 9.996 17.5312 9.98421 17.5865 9.96129C17.6418 9.93837 17.6921 9.90478 17.7344 9.86244C17.7768 9.8201 17.8104 9.76983 17.8333 9.7145C17.8562 9.65918 17.868 9.59988 17.868 9.54C17.8869 9.47103 17.8892 9.39858 17.8749 9.32852C17.8606 9.25846 17.8301 9.19274 17.7857 9.13667C17.7413 9.08061 17.6843 9.03577 17.6194 9.00577C17.5545 8.97578 17.4835 8.96147 17.412 8.964Z" fill="white"/>
</svg>
